<svg xmlns="http://www.w3.org/2000/svg" xmlns:xlink="http://www.w3.org/1999/xlink" width="1000" zoomAndPan="magnify" viewBox="0 0 750 749.999995" height="1000" preserveAspectRatio="xMidYMid meet" version="1.0"><defs><g/><clipPath id="5791cbea3c"><path d="M 9.226562 18.527344 L 740.476562 18.527344 L 740.476562 484.277344 L 9.226562 484.277344 Z M 9.226562 18.527344 " clip-rule="nonzero"/></clipPath><clipPath id="7ceb21840e"><path d="M 581.695312 277.007812 L 718.527344 277.007812 L 718.527344 413.839844 L 581.695312 413.839844 Z M 581.695312 277.007812 " clip-rule="nonzero"/></clipPath><clipPath id="ae2c10f9ab"><path d="M 650.113281 277.007812 C 612.328125 277.007812 581.695312 307.640625 581.695312 345.425781 C 581.695312 383.207031 612.328125 413.839844 650.113281 413.839844 C 687.894531 413.839844 718.527344 383.207031 718.527344 345.425781 C 718.527344 307.640625 687.894531 277.007812 650.113281 277.007812 Z M 650.113281 277.007812 " clip-rule="nonzero"/></clipPath><clipPath id="db420ac2c5"><path d="M 599.832031 295.144531 L 700.390625 295.144531 L 700.390625 395.703125 L 599.832031 395.703125 Z M 599.832031 295.144531 " clip-rule="nonzero"/></clipPath><clipPath id="e6c1537830"><path d="M 650.113281 295.144531 C 622.34375 295.144531 599.832031 317.65625 599.832031 345.425781 C 599.832031 373.191406 622.34375 395.703125 650.113281 395.703125 C 677.878906 395.703125 700.390625 373.191406 700.390625 345.425781 C 700.390625 317.65625 677.878906 295.144531 650.113281 295.144531 Z M 650.113281 295.144531 " clip-rule="nonzero"/></clipPath><clipPath id="1aa29df67a"><path d="M 151.820312 203.347656 L 225.480469 203.347656 L 225.480469 277.007812 L 151.820312 277.007812 Z M 151.820312 203.347656 " clip-rule="nonzero"/></clipPath><clipPath id="55f2bd2a38"><path d="M 188.648438 203.347656 C 168.308594 203.347656 151.820312 219.835938 151.820312 240.175781 C 151.820312 260.519531 168.308594 277.007812 188.648438 277.007812 C 208.992188 277.007812 225.480469 260.519531 225.480469 240.175781 C 225.480469 219.835938 208.992188 203.347656 188.648438 203.347656 Z M 188.648438 203.347656 " clip-rule="nonzero"/></clipPath><clipPath id="f12469c6a6"><path d="M 116.730469 281 L 262.230469 281 L 262.230469 355.757812 L 116.730469 355.757812 Z M 116.730469 281 " clip-rule="nonzero"/></clipPath></defs><rect x="-75" width="900" fill="#ffffff" y="-74.999999" height="899.999994" fill-opacity="1"/><rect x="-75" width="900" fill="#ffffff" y="-74.999999" height="899.999994" fill-opacity="1"/><g clip-path="url(#5791cbea3c)"><path fill="#000000" d="M 69.109375 31.832031 C 43.457031 31.832031 22.582031 52.730469 22.582031 78.410156 L 22.582031 424.394531 C 22.582031 450.074219 43.457031 470.96875 69.109375 470.96875 L 680.59375 470.96875 C 706.242188 470.96875 727.117188 450.074219 727.117188 424.394531 L 727.117188 78.410156 C 727.117188 52.730469 706.242188 31.832031 680.59375 31.832031 Z M 680.59375 484.277344 L 69.109375 484.277344 C 36.136719 484.277344 9.289062 457.402344 9.289062 424.394531 L 9.289062 78.410156 C 9.289062 45.402344 36.136719 18.527344 69.109375 18.527344 L 680.59375 18.527344 C 713.566406 18.527344 740.410156 45.402344 740.410156 78.410156 L 740.410156 424.394531 C 740.410156 457.402344 713.566406 484.277344 680.59375 484.277344 " fill-opacity="1" fill-rule="nonzero"/></g><path fill="#000000" d="M 667.300781 98.371094 L 82.402344 98.371094 C 78.714844 98.371094 75.757812 95.40625 75.757812 91.714844 C 75.757812 88.023438 78.714844 85.0625 82.402344 85.0625 L 667.300781 85.0625 C 670.984375 85.0625 673.945312 88.023438 673.945312 91.714844 C 673.945312 95.40625 670.984375 98.371094 667.300781 98.371094 " fill-opacity="1" fill-rule="nonzero"/><path fill="#000000" d="M 188.746094 204.828125 C 170.417969 204.828125 155.515625 219.746094 155.515625 238.09375 C 155.515625 256.445312 170.417969 271.363281 188.746094 271.363281 C 207.078125 271.363281 221.980469 256.445312 221.980469 238.09375 C 221.980469 219.746094 207.078125 204.828125 188.746094 204.828125 Z M 188.746094 284.667969 C 163.097656 284.667969 142.222656 263.773438 142.222656 238.09375 C 142.222656 212.414062 163.097656 191.519531 188.746094 191.519531 C 214.398438 191.519531 235.273438 212.414062 235.273438 238.09375 C 235.273438 263.773438 214.398438 284.667969 188.746094 284.667969 " fill-opacity="1" fill-rule="nonzero"/><path fill="#000000" d="M 268.507812 364.511719 C 264.820312 364.511719 261.859375 361.550781 261.859375 357.859375 C 261.859375 317.519531 229.042969 284.667969 188.746094 284.667969 C 148.453125 284.667969 115.636719 317.519531 115.636719 357.859375 C 115.636719 361.550781 112.675781 364.511719 108.988281 364.511719 C 105.300781 364.511719 102.34375 361.550781 102.34375 357.859375 C 102.34375 310.140625 141.078125 271.363281 188.746094 271.363281 C 236.414062 271.363281 275.152344 310.140625 275.152344 357.859375 C 275.152344 361.550781 272.191406 364.511719 268.507812 364.511719 " fill-opacity="1" fill-rule="nonzero"/><path fill="#000000" d="M 89.050781 351.203125 L 288.445312 351.203125 L 288.445312 151.597656 L 89.050781 151.597656 Z M 295.09375 364.511719 L 82.402344 364.511719 C 78.714844 364.511719 75.757812 361.550781 75.757812 357.859375 L 75.757812 144.945312 C 75.757812 141.253906 78.714844 138.289062 82.402344 138.289062 L 295.09375 138.289062 C 298.777344 138.289062 301.738281 141.253906 301.738281 144.945312 L 301.738281 357.859375 C 301.738281 361.550781 298.777344 364.511719 295.09375 364.511719 " fill-opacity="1" fill-rule="nonzero"/><path fill="#000000" d="M 268.507812 431.046875 C 267.570312 431.046875 266.585938 430.839844 265.648438 430.425781 C 230.445312 413.738281 210.554688 428.917969 209.726562 429.59375 C 206.972656 431.722656 202.921875 431.410156 200.585938 428.8125 C 197.210938 424.964844 186.460938 415.609375 176.855469 417.585938 C 171.402344 418.78125 168.703125 420.859375 165.589844 423.300781 C 160.914062 426.941406 155.671875 431.046875 143.777344 431.046875 C 128.929688 431.046875 115.273438 416.753906 108.210938 407.96875 L 87.074219 429.074219 C 84.480469 431.671875 80.324219 431.671875 77.675781 429.074219 C 75.082031 426.472656 75.082031 422.316406 77.675781 419.714844 L 104.316406 393.101562 C 105.71875 391.644531 107.691406 390.917969 109.664062 391.179688 C 111.636719 391.386719 113.453125 392.425781 114.542969 394.089844 C 118.59375 400.222656 132.667969 417.742188 143.777344 417.742188 C 151.101562 417.742188 153.59375 415.765625 157.382812 412.800781 C 161.070312 409.945312 165.589844 406.410156 174.050781 404.589844 C 187.863281 401.625 200.273438 410.464844 206.507812 415.972656 C 216.058594 410.828125 238.753906 402.976562 271.363281 418.363281 C 274.683594 419.921875 276.085938 423.925781 274.53125 427.253906 C 273.386719 429.644531 271 431.046875 268.507812 431.046875 " fill-opacity="1" fill-rule="nonzero"/><path fill="#000000" d="M 667.300781 164.90625 L 361.558594 164.90625 C 357.871094 164.90625 354.910156 161.941406 354.910156 158.25 C 354.910156 154.5625 357.871094 151.597656 361.558594 151.597656 L 667.300781 151.597656 C 670.984375 151.597656 673.945312 154.5625 673.945312 158.25 C 673.945312 161.941406 670.984375 164.90625 667.300781 164.90625 " fill-opacity="1" fill-rule="nonzero"/><path fill="#000000" d="M 547.660156 297.976562 L 361.558594 297.976562 C 357.871094 297.976562 354.910156 295.011719 354.910156 291.324219 C 354.910156 287.632812 357.871094 284.667969 361.558594 284.667969 L 547.660156 284.667969 C 551.347656 284.667969 554.308594 287.632812 554.308594 291.324219 C 554.308594 295.011719 551.347656 297.976562 547.660156 297.976562 " fill-opacity="1" fill-rule="nonzero"/><path fill="#000000" d="M 547.660156 351.203125 L 361.558594 351.203125 C 357.871094 351.203125 354.910156 348.242188 354.910156 344.550781 C 354.910156 340.859375 357.871094 337.898438 361.558594 337.898438 L 547.660156 337.898438 C 551.347656 337.898438 554.308594 340.859375 554.308594 344.550781 C 554.308594 348.242188 551.347656 351.203125 547.660156 351.203125 " fill-opacity="1" fill-rule="nonzero"/><path fill="#000000" d="M 547.660156 404.433594 L 361.558594 404.433594 C 357.871094 404.433594 354.910156 401.46875 354.910156 397.78125 C 354.910156 394.089844 357.871094 391.125 361.558594 391.125 L 547.660156 391.125 C 551.347656 391.125 554.308594 394.089844 554.308594 397.78125 C 554.308594 401.46875 551.347656 404.433594 547.660156 404.433594 " fill-opacity="1" fill-rule="nonzero"/><path fill="#000000" d="M 385.496094 224.785156 C 385.496094 230.660156 380.71875 235.441406 374.851562 235.441406 C 368.984375 235.441406 364.207031 230.660156 364.207031 224.785156 C 364.207031 218.914062 368.984375 214.132812 374.851562 214.132812 C 380.71875 214.132812 385.496094 218.914062 385.496094 224.785156 " fill-opacity="1" fill-rule="nonzero"/><path fill="#000000" d="M 425.375 224.785156 C 425.375 230.660156 420.597656 235.441406 414.730469 235.441406 C 408.863281 235.441406 404.085938 230.660156 404.085938 224.785156 C 404.085938 218.914062 408.863281 214.132812 414.730469 214.132812 C 420.597656 214.132812 425.375 218.914062 425.375 224.785156 " fill-opacity="1" fill-rule="nonzero"/><path fill="#000000" d="M 465.253906 224.785156 C 465.253906 230.660156 460.476562 235.441406 454.609375 235.441406 C 448.742188 235.441406 443.964844 230.660156 443.964844 224.785156 C 443.964844 218.914062 448.742188 214.132812 454.609375 214.132812 C 460.476562 214.132812 465.253906 218.914062 465.253906 224.785156 " fill-opacity="1" fill-rule="nonzero"/><path fill="#000000" d="M 505.132812 224.785156 C 505.132812 230.660156 500.355469 235.441406 494.488281 235.441406 C 488.621094 235.441406 483.84375 230.660156 483.84375 224.785156 C 483.84375 218.914062 488.621094 214.132812 494.488281 214.132812 C 500.355469 214.132812 505.132812 218.914062 505.132812 224.785156 " fill-opacity="1" fill-rule="nonzero"/><path fill="#000000" d="M 545.011719 224.785156 C 545.011719 230.660156 540.234375 235.441406 534.367188 235.441406 C 528.5 235.441406 523.722656 230.660156 523.722656 224.785156 C 523.722656 218.914062 528.5 214.132812 534.367188 214.132812 C 540.234375 214.132812 545.011719 218.914062 545.011719 224.785156 " fill-opacity="1" fill-rule="nonzero"/><path fill="#000000" d="M 584.890625 224.785156 C 584.890625 230.660156 580.113281 235.441406 574.246094 235.441406 C 568.378906 235.441406 563.601562 230.660156 563.601562 224.785156 C 563.601562 218.914062 568.378906 214.132812 574.246094 214.132812 C 580.113281 214.132812 584.890625 218.914062 584.890625 224.785156 " fill-opacity="1" fill-rule="nonzero"/><path fill="#000000" d="M 624.773438 224.785156 C 624.773438 230.660156 619.996094 235.441406 614.125 235.441406 C 608.257812 235.441406 603.480469 230.660156 603.480469 224.785156 C 603.480469 218.914062 608.257812 214.132812 614.125 214.132812 C 619.996094 214.132812 624.773438 218.914062 624.773438 224.785156 " fill-opacity="1" fill-rule="nonzero"/><path fill="#000000" d="M 664.652344 224.785156 C 664.652344 230.660156 659.875 235.441406 654.007812 235.441406 C 648.136719 235.441406 643.363281 230.660156 643.363281 224.785156 C 643.363281 218.914062 648.136719 214.132812 654.007812 214.132812 C 659.875 214.132812 664.652344 218.914062 664.652344 224.785156 " fill-opacity="1" fill-rule="nonzero"/><g clip-path="url(#7ceb21840e)"><g clip-path="url(#ae2c10f9ab)"><path fill="#3f01a6" d="M 581.695312 277.007812 L 718.527344 277.007812 L 718.527344 413.839844 L 581.695312 413.839844 Z M 581.695312 277.007812 " fill-opacity="1" fill-rule="nonzero"/></g></g><g clip-path="url(#db420ac2c5)"><g clip-path="url(#e6c1537830)"><path fill="#ff914d" d="M 599.832031 295.144531 L 700.390625 295.144531 L 700.390625 395.703125 L 599.832031 395.703125 Z M 599.832031 295.144531 " fill-opacity="1" fill-rule="nonzero"/></g></g><g clip-path="url(#1aa29df67a)"><g clip-path="url(#55f2bd2a38)"><path fill="#3f01a6" d="M 151.820312 203.347656 L 225.480469 203.347656 L 225.480469 277.007812 L 151.820312 277.007812 Z M 151.820312 203.347656 " fill-opacity="1" fill-rule="nonzero"/></g></g><g clip-path="url(#f12469c6a6)"><path fill="#ff914d" d="M 262.429688 355.613281 L 116.730469 355.613281 C 117.363281 329.628906 127.378906 308.8125 148.777344 294.609375 C 173.84375 277.96875 200.367188 277.097656 226.359375 292.171875 C 250.097656 305.941406 261.40625 327.636719 262.433594 355.613281 Z M 262.429688 355.613281 " fill-opacity="1" fill-rule="nonzero"/></g><path stroke-linecap="butt" transform="matrix(0.75, 0, 0, 0.75, -56.732224, 437.159687)" fill="none" stroke-linejoin="miter" d="M 344.549232 126.250632 C 361.99715 126.250632 376.919026 129.443341 389.31486 135.839174 C 401.705485 142.2298 411.070069 151.177717 417.408611 162.677717 C 423.741945 174.182926 426.908611 187.54751 426.908611 202.776678 C 426.908611 218.005845 423.741945 231.339179 417.408611 242.792305 C 411.070069 254.240222 401.705485 263.156889 389.31486 269.547514 C 376.919026 275.93814 361.99715 279.136056 344.549232 279.136056 L 298.533605 279.136056 L 298.533605 370.000644 L 250.351311 370.000644 L 250.351311 126.250632 Z M 338.21069 240.953763 C 364.99715 240.953763 378.392984 228.229804 378.392984 202.776678 C 378.392984 177.214176 364.99715 164.427717 338.21069 164.427717 L 298.533605 164.427717 L 298.533605 240.953763 Z M 338.21069 240.953763 " stroke="#000000" stroke-width="25.608826" stroke-opacity="1" stroke-miterlimit="4"/><path stroke-linecap="butt" transform="matrix(0.75, 0, 0, 0.75, -56.732224, 437.159687)" fill="none" stroke-linejoin="miter" d="M 490.939865 164.094384 C 482.601322 164.094384 475.820072 161.568342 470.596114 156.51105 C 465.372155 151.453758 462.76278 144.922508 462.76278 136.922508 C 462.76278 129.026674 465.372155 122.552715 470.596114 117.495423 C 475.820072 112.438132 482.601322 109.91209 490.939865 109.91209 C 496.497156 109.91209 501.439865 111.078756 505.778407 113.41209 C 510.11174 115.745423 513.476324 118.94334 515.861741 123.000632 C 518.252366 127.057924 519.450283 131.698549 519.450283 136.922508 C 519.450283 142.146466 518.252366 146.813133 515.861741 150.927717 C 513.476324 155.037092 510.11174 158.26105 505.778407 160.594384 C 501.439865 162.927717 496.497156 164.094384 490.939865 164.094384 Z M 467.929447 370.000644 L 467.929447 186.104802 L 514.111741 186.104802 L 514.111741 370.000644 Z M 467.929447 370.000644 " stroke="#000000" stroke-width="25.608826" stroke-opacity="1" stroke-miterlimit="4"/><path stroke-linecap="butt" transform="matrix(0.75, 0, 0, 0.75, -56.732224, 437.159687)" fill="none" stroke-linejoin="miter" d="M 554.971118 231.287096 L 657.174248 231.287096 L 657.174248 271.964181 L 554.971118 271.964181 Z M 554.971118 231.287096 " stroke="#000000" stroke-width="25.608826" stroke-opacity="1" stroke-miterlimit="4"/><path stroke-linecap="butt" transform="matrix(0.75, 0, 0, 0.75, -56.732224, 437.159687)" fill="none" stroke-linejoin="miter" d="M 791.387796 126.250632 C 830.960714 126.250632 861.163841 136.474591 882.002384 156.927717 C 902.846135 177.380843 913.262802 207.776678 913.262802 248.125638 C 913.262802 288.360015 902.846135 318.735017 882.002384 339.240226 C 861.163841 359.745435 830.960714 370.000644 791.387796 370.000644 L 703.695083 370.000644 L 703.695083 126.250632 Z M 788.554462 329.485017 C 813.674255 329.485017 832.460714 323.06835 844.908632 310.229808 C 857.356549 297.391266 863.580508 276.68814 863.580508 248.125638 C 863.580508 219.557928 857.356549 198.860011 844.908632 186.021468 C 832.460714 173.182926 813.674255 166.766259 788.554462 166.766259 L 751.877377 166.766259 L 751.877377 329.485017 Z M 788.554462 329.485017 " stroke="#000000" stroke-width="25.608826" stroke-opacity="1" stroke-miterlimit="4"/><g fill="#3f01a6" fill-opacity="1"><g transform="translate(107.271678, 714.659673)"><g><path d="M 94.40625 -182.8125 C 107.5 -182.8125 118.691406 -180.414062 127.984375 -175.625 C 137.273438 -170.832031 144.296875 -164.117188 149.046875 -155.484375 C 153.804688 -146.859375 156.1875 -136.835938 156.1875 -125.421875 C 156.1875 -114.003906 153.804688 -104 149.046875 -95.40625 C 144.296875 -86.820312 137.273438 -80.132812 127.984375 -75.34375 C 118.691406 -70.550781 107.5 -68.15625 94.40625 -68.15625 L 59.890625 -68.15625 L 59.890625 0 L 23.765625 0 L 23.765625 -182.8125 Z M 89.65625 -96.78125 C 109.75 -96.78125 119.796875 -106.328125 119.796875 -125.421875 C 119.796875 -144.597656 109.75 -154.1875 89.65625 -154.1875 L 59.890625 -154.1875 L 59.890625 -96.78125 Z M 89.65625 -96.78125 "/></g></g></g><g fill="#ff914d" fill-opacity="1"><g transform="translate(274.33417, 714.659673)"><g><path d="M 37.140625 -154.4375 C 30.890625 -154.4375 25.800781 -156.332031 21.875 -160.125 C 17.957031 -163.914062 16 -168.8125 16 -174.8125 C 16 -180.726562 17.957031 -185.582031 21.875 -189.375 C 25.800781 -193.175781 30.890625 -195.078125 37.140625 -195.078125 C 41.304688 -195.078125 45.015625 -194.195312 48.265625 -192.4375 C 51.515625 -190.6875 54.035156 -188.289062 55.828125 -185.25 C 57.617188 -182.207031 58.515625 -178.726562 58.515625 -174.8125 C 58.515625 -170.894531 57.617188 -167.394531 55.828125 -164.3125 C 54.035156 -161.226562 51.515625 -158.8125 48.265625 -157.0625 C 45.015625 -155.3125 41.304688 -154.4375 37.140625 -154.4375 Z M 19.875 0 L 19.875 -137.921875 L 54.515625 -137.921875 L 54.515625 0 Z M 19.875 0 "/></g></g></g><g fill="#3f01a6" fill-opacity="1"><g transform="translate(348.619319, 714.659673)"><g><path d="M 87.53125 -73.53125 L 10.875 -73.53125 L 10.875 -104.03125 L 87.53125 -104.03125 Z M 87.53125 -73.53125 "/></g></g></g><g fill="#ff914d" fill-opacity="1"><g transform="translate(447.279474, 714.659673)"><g><path d="M 89.53125 -182.8125 C 119.207031 -182.8125 141.859375 -175.140625 157.484375 -159.796875 C 173.117188 -144.460938 180.9375 -121.664062 180.9375 -91.40625 C 180.9375 -61.226562 173.117188 -38.445312 157.484375 -23.0625 C 141.859375 -7.6875 119.207031 0 89.53125 0 L 23.765625 0 L 23.765625 -182.8125 Z M 87.40625 -30.390625 C 106.25 -30.390625 120.335938 -35.203125 129.671875 -44.828125 C 139.003906 -54.453125 143.671875 -69.976562 143.671875 -91.40625 C 143.671875 -112.832031 139.003906 -128.359375 129.671875 -137.984375 C 120.335938 -147.617188 106.25 -152.4375 87.40625 -152.4375 L 59.890625 -152.4375 L 59.890625 -30.390625 Z M 87.40625 -30.390625 "/></g></g></g></svg>